<svg width="944" height="324" viewBox="0 0 944 324" fill="none" xmlns="http://www.w3.org/2000/svg">
<rect width="944" height="324" rx="16" fill="white"/>
<path d="M694.479 189.902C694.479 205.242 687.104 219.598 669.896 219.598C663.406 219.598 658.882 217.386 655.785 214.337L654.359 219.598H646.001V143.832H656.621V190.639C656.621 200.128 658.932 210.404 670.289 210.355C681.302 210.306 683.761 199.587 683.761 190.639C683.761 181.74 681.352 171.071 670.289 171.022C668.077 171.022 665.52 171.513 663.553 172.3V163.647C665.372 162.958 668.863 161.778 672.747 161.778C687.792 161.729 694.479 176.627 694.479 189.902ZM598.112 219.598H608.732V143.832H598.112V219.598ZM788.387 161.729C784.503 161.729 780.963 162.909 779.193 163.597V172.251C781.209 171.513 783.766 170.972 785.929 170.972C796.942 171.022 799.401 181.642 799.401 190.59C799.401 199.538 796.992 210.257 785.929 210.306C774.572 210.355 772.261 200.079 772.261 190.59V143.783H761.592V219.549H769.95L771.376 214.288C774.473 217.337 778.997 219.549 785.487 219.549C802.695 219.549 810.07 205.192 810.07 189.852C810.119 176.627 803.432 161.729 788.387 161.729ZM863.957 204.652V184.788C863.957 169.153 853.877 161.778 842.274 161.778C829.982 161.778 821.378 169.743 821.378 169.743L826.442 177.02C827.573 176.086 833.67 171.562 841.684 171.562C848.518 171.562 854.025 174.66 854.025 185.182V197.522C854.025 206.766 844.634 210.699 838.292 210.699C832.687 210.699 828.557 208.437 828.557 203.472C828.557 195.064 840.111 192.507 847.092 192.901V184.788C831.802 184.002 818.084 190.344 818.084 204.16C818.084 213.747 825.508 219.647 836.669 219.647C845.027 219.647 852.206 216.452 855.746 212.912C857.614 217.73 862.777 219.647 866.71 219.647L868.775 211.879C865.432 211.092 863.957 209.47 863.957 204.652ZM748.317 204.652V184.788C748.317 169.153 738.237 161.778 726.634 161.778C714.342 161.778 705.738 169.743 705.738 169.743L710.802 177.02C711.933 176.086 718.03 171.562 726.044 171.562C732.878 171.562 738.385 174.66 738.385 185.182V197.522C738.385 206.766 728.994 210.699 722.652 210.699C717.047 210.699 712.917 208.437 712.917 203.472C712.917 195.064 724.471 192.507 731.452 192.901V184.788C716.162 184.002 702.444 190.344 702.444 204.16C702.444 213.747 709.868 219.647 721.029 219.647C729.387 219.647 736.566 216.452 740.106 212.912C741.974 217.73 747.137 219.647 751.07 219.647L753.135 211.879C749.792 211.092 748.317 209.47 748.317 204.652ZM584.837 204.652V184.788C584.837 169.153 574.758 161.778 563.155 161.778C550.863 161.778 542.259 169.743 542.259 169.743L547.323 177.02C548.454 176.086 554.551 171.562 562.565 171.562C569.399 171.562 574.906 174.66 574.906 185.182V197.522C574.906 206.766 565.515 210.699 559.172 210.699C553.567 210.699 549.437 208.437 549.437 203.472C549.437 195.064 560.992 192.507 567.973 192.901V184.788C552.682 184.002 538.965 190.344 538.965 204.16C538.965 213.747 546.389 219.647 557.55 219.647C565.908 219.647 573.087 216.452 576.627 212.912C578.495 217.73 583.657 219.647 587.591 219.647L589.656 211.879C586.312 211.092 584.837 209.47 584.837 204.652ZM622.057 219.598H632.677V163.499H622.057V219.598ZM622.057 154.452H632.677V143.832H622.057V154.452Z" fill="black"/>
<path d="M144.601 143.832H135.062V219.549H144.601V143.832Z" fill="black"/>
<path d="M303.95 211.289L303.409 211.141V219.598H295.395V143.832H304.835C304.835 160.45 304.785 177.118 304.835 193.736C304.835 202.291 308.424 211.731 318.454 211.83C323.469 211.977 327.255 209.666 329.762 205.34C332.417 200.718 332.958 195.605 332.958 190.442C332.909 186.705 332.614 183.018 331.188 179.478C329.074 174.168 323.813 170.923 318.454 170.923C315.061 170.923 313.439 171.955 310.538 173.43C310.538 170.923 310.538 168.514 310.538 166.055C313.685 164.089 317.323 162.909 320.961 162.909C335.81 162.909 342.496 177.118 342.496 190.393C342.496 204.061 335.76 219.549 318.454 219.549C311.275 219.598 307.293 216.058 303.95 211.289Z" fill="black"/>
<path d="M350.312 204.406C350.312 197.326 353.361 192.163 359.212 189.41C364.03 187.099 372.782 186.607 378.485 185.919V193.196C371.946 194.13 359.556 194.277 359.556 202.98C359.556 209.863 363.44 212.125 369.832 212.125C376.863 212.125 385.909 207.356 385.811 199.44L385.86 180.363C385.86 172.054 380.55 170.677 373.519 170.677C365.161 170.726 362.85 173.136 361.129 180.806H353.017C352.279 167.481 363.784 162.811 374.109 162.811C383.697 162.811 394.169 167.088 394.169 177.856C394.169 187.64 394.169 197.473 394.169 207.257C394.169 212.518 397.168 211.879 401.397 211.486V217.386C401.397 217.386 399.627 219.106 395.693 219.106C390.334 219.106 386.893 216.943 386.303 211.191C380.304 216.648 376.961 219.647 366.292 219.451C357.392 219.598 350.312 213.698 350.312 204.406Z" fill="black"/>
<path d="M235.559 204.406C235.559 197.326 238.607 192.163 244.458 189.41C249.276 187.099 258.028 186.607 263.731 185.919V193.196C257.192 194.13 244.802 194.277 244.802 202.98C244.802 209.863 248.686 212.125 255.078 212.125C262.109 212.125 271.155 207.356 271.057 199.44L271.106 180.363C271.106 172.054 265.796 170.677 258.765 170.677C250.456 170.726 248.096 173.136 246.375 180.806H238.263C237.525 167.481 249.03 162.811 259.355 162.811C268.943 162.811 279.415 167.088 279.415 177.856C279.415 187.64 279.415 197.473 279.415 207.257C279.415 212.518 282.414 211.879 286.643 211.486V217.386C286.643 217.386 284.873 219.106 280.939 219.106C275.58 219.106 272.139 216.943 271.549 211.191C265.55 216.648 262.207 219.647 251.538 219.451C242.639 219.598 235.559 213.698 235.559 204.406Z" fill="black"/>
<path d="M75.2266 204.406C75.2266 197.326 78.2749 192.163 84.1257 189.41C88.9441 187.099 97.6957 186.607 103.301 185.919V193.196C96.8107 194.13 84.4207 194.277 84.4207 202.98C84.4207 209.863 88.3049 212.125 94.6966 212.125C101.727 212.125 110.676 207.356 110.676 199.44V180.363C110.725 172.054 105.415 170.677 98.4332 170.677C90.0749 170.726 87.7641 173.136 86.0432 180.806H77.8816C77.1932 167.481 88.6491 162.811 99.0724 162.811C108.66 162.811 119.132 167.088 119.132 177.856C119.132 187.64 119.132 197.473 119.132 207.257C119.132 212.518 122.132 211.879 126.36 211.486V217.386C126.36 217.386 124.59 219.106 120.657 219.106C115.297 219.106 111.807 216.943 111.266 211.191C105.267 216.648 101.924 219.647 91.2549 219.451C82.3066 219.598 75.2266 213.698 75.2266 204.406Z" fill="black"/>
<path d="M189.049 211.289L188.508 211.141V219.598H180.543V143.832H189.934C189.934 160.45 189.934 177.118 189.934 193.736C189.934 202.291 193.621 211.731 203.553 211.83C208.568 211.977 212.354 209.666 214.861 205.34C217.565 200.718 218.106 195.605 218.057 190.442C218.057 186.705 217.762 183.018 216.336 179.478C214.173 174.168 208.912 170.923 203.553 170.923C200.16 170.923 198.587 171.955 195.735 173.43C195.735 170.923 195.735 168.514 195.735 166.055C198.882 164.089 202.471 162.909 206.159 162.909C221.007 162.909 227.595 177.118 227.595 190.393C227.595 204.061 220.86 219.549 203.651 219.549C196.424 219.598 192.392 216.058 189.049 211.289Z" fill="black"/>
<path d="M167.316 162.957H157.777V219.597H167.316V162.957Z" fill="black"/>
<path d="M462.512 170.529L480.31 188.328C481.933 189.95 481.933 192.605 480.31 194.277L462.512 212.075" stroke="black" stroke-width="3" stroke-miterlimit="10"/>
<path d="M83.0952 80.9967C84.0785 80.9967 84.8652 81.1933 85.4552 81.5375C86.0452 81.9308 86.4877 82.5208 86.7335 83.3567C87.0285 84.1925 87.1268 85.3233 87.1268 86.7983C87.1268 88.2242 86.9793 89.355 86.6843 90.24C86.3893 91.0758 85.8485 91.715 85.0618 92.1575C84.2752 92.5508 83.1935 92.7967 81.7185 92.7967C80.981 92.7967 79.8993 92.6983 78.4243 92.5508L77.7852 92.5017V76.375H79.7518V81.7833C80.9318 81.2425 82.0627 80.9967 83.0952 80.9967ZM81.8168 91.0267C82.751 91.0267 83.4393 90.8792 83.931 90.535C84.4227 90.24 84.7177 89.7483 84.9143 89.1583C85.0618 88.5683 85.1602 87.7325 85.1602 86.7C85.1602 85.6675 85.0618 84.8808 84.9143 84.2908C84.7668 83.7008 84.521 83.3075 84.1768 83.0617C83.8327 82.8158 83.341 82.7175 82.751 82.7175C82.3085 82.7175 81.8168 82.7667 81.276 82.9142C80.7352 83.0617 80.2435 83.2092 79.7518 83.4058V90.9775C80.7352 90.9775 81.4235 91.0267 81.8168 91.0267Z" fill="#B3B3B3"/>
<path d="M99.0751 86.3549L99.0259 87.6333H91.5526C91.5526 88.7641 91.7493 89.5999 92.1426 90.2391C92.5359 90.8291 93.2734 91.1733 94.3551 91.1733C95.5351 91.1733 96.7643 91.1241 97.9443 91.0258L98.6326 90.9766L98.6818 92.4024C96.9118 92.6483 95.3876 92.7958 94.1584 92.7958C92.9293 92.7958 91.9951 92.5499 91.3559 92.0583C90.6676 91.5666 90.2251 90.9274 89.9793 90.0916C89.7334 89.2558 89.5859 88.2233 89.5859 86.9941C89.5859 83.0116 91.2084 81.0449 94.4534 81.0449C96.0268 81.0449 97.2068 81.4874 97.9443 82.3233C98.6818 83.1591 99.0751 84.4866 99.0751 86.3549ZM91.5526 86.2074H97.1084C97.1084 84.8799 96.9118 83.9949 96.4693 83.4049C96.0268 82.8641 95.3876 82.5691 94.4043 82.5691C93.4209 82.5691 92.7326 82.8641 92.2409 83.4541C91.7984 83.9949 91.5526 84.9291 91.5526 86.2074Z" fill="#B3B3B3"/>
<path d="M107.384 81.2422V82.9139H104.237V92.5014H102.271V82.9139H100.992V81.2422H102.271V80.2097C102.271 79.1772 102.369 78.3414 102.566 77.7514C102.762 77.1614 103.057 76.7681 103.549 76.5222C103.991 76.2764 104.631 76.1289 105.417 76.1289C105.712 76.1289 106.056 76.1289 106.499 76.1781C106.941 76.2272 107.335 76.2272 107.777 76.2764V77.8497L106.056 77.8006C105.614 77.8006 105.221 77.8497 104.975 77.9972C104.729 78.1447 104.532 78.3906 104.434 78.6856C104.336 79.0297 104.237 79.5214 104.237 80.1606V81.1931H107.384V81.2422Z" fill="#B3B3B3"/>
<path d="M108.906 86.8469C108.906 84.7328 109.3 83.2086 110.037 82.3236C110.775 81.4386 112.053 80.9961 113.823 80.9961C115.544 80.9961 116.822 81.4386 117.609 82.3236C118.346 83.2578 118.74 84.7328 118.74 86.8469C118.74 88.9611 118.395 90.4361 117.707 91.3703C116.97 92.3044 115.691 92.7469 113.823 92.7469C112.004 92.7469 110.725 92.3044 109.939 91.3703C109.3 90.4361 108.906 88.9611 108.906 86.8469ZM110.922 86.7978C110.922 88.4203 111.119 89.5019 111.512 90.0919C111.856 90.7311 112.643 91.0261 113.872 91.0261C115.052 91.0261 115.839 90.7311 116.232 90.0919C116.576 89.5019 116.773 88.3711 116.773 86.7978C116.773 85.1753 116.576 84.0936 116.183 83.5528C115.79 82.9628 115.003 82.6678 113.872 82.6678C112.741 82.6678 112.004 82.9628 111.61 83.5528C111.119 84.1428 110.922 85.2736 110.922 86.7978Z" fill="#B3B3B3"/>
<path d="M123.558 84.4873V92.5014H121.641V81.2423H123.558V82.7173C124.197 82.2748 124.836 81.9306 125.574 81.5864C126.311 81.2423 126.951 81.0456 127.541 80.9473V82.8648C126.311 83.1598 124.984 83.7006 123.558 84.4873Z" fill="#B3B3B3"/>
<path d="M138.458 86.3549L138.409 87.6333H130.935C130.935 88.7641 131.132 89.5999 131.525 90.2391C131.919 90.8291 132.656 91.1733 133.738 91.1733C134.918 91.1733 136.147 91.1241 137.327 91.0258L138.015 90.9766L138.065 92.4024C136.295 92.6483 134.77 92.7958 133.541 92.7958C132.312 92.7958 131.378 92.5499 130.739 92.0583C130.05 91.5666 129.608 90.9274 129.362 90.0916C129.116 89.2558 128.969 88.2233 128.969 86.9941C128.969 83.0116 130.591 81.0449 133.836 81.0449C135.41 81.0449 136.59 81.4874 137.327 82.3233C138.065 83.1591 138.458 84.4866 138.458 86.3549ZM130.935 86.2074H136.491C136.491 84.8799 136.295 83.9949 135.852 83.4049C135.41 82.8641 134.77 82.5691 133.787 82.5691C132.804 82.5691 132.115 82.8641 131.624 83.4541C131.181 83.9949 130.935 84.9291 130.935 86.2074Z" fill="#B3B3B3"/>
<path d="M549.88 84.6344V90.3378C549.93 90.5836 550.028 90.7803 550.224 90.9278C550.421 91.0753 550.765 91.1736 551.159 91.2228L551.11 92.6486C550.421 92.6486 549.831 92.5994 549.389 92.4519C548.897 92.3536 548.504 92.1569 548.209 91.8128C546.832 92.4028 545.455 92.6978 544.128 92.6978C543.095 92.6978 542.26 92.4028 541.719 91.8128C541.178 91.2228 540.883 90.3869 540.883 89.2561C540.883 88.1253 541.178 87.3386 541.768 86.8469C542.358 86.3553 543.243 86.0111 544.472 85.9128L547.914 85.5686V84.7328C547.914 83.3561 547.324 82.6678 546.094 82.6678C545.111 82.6678 543.882 82.7661 542.309 82.9136L541.571 82.9628L541.522 81.4878C543.292 81.1436 544.816 80.9961 546.045 80.9961C547.324 80.9961 548.307 81.2911 548.946 81.8811C549.585 82.4711 549.88 83.4053 549.88 84.6344ZM542.948 89.2069C542.948 90.5344 543.489 91.1736 544.57 91.1736C545.554 91.1736 546.635 90.9278 547.914 90.4853V86.9453L544.718 87.2894C544.079 87.3386 543.636 87.5353 543.341 87.8303C543.095 88.1744 542.948 88.6169 542.948 89.2069Z" fill="#B3B3B3"/>
<path d="M558.876 81.2422V82.9139H555.729V92.5014H553.763V82.9139H552.484V81.2422H553.763V80.2097C553.763 79.1772 553.861 78.3414 554.058 77.7514C554.254 77.1614 554.549 76.7681 555.041 76.5222C555.484 76.2764 556.123 76.1289 556.909 76.1289C557.204 76.1289 557.549 76.1289 557.991 76.1781C558.434 76.2272 558.827 76.2272 559.269 76.2764V77.8497L557.549 77.8006C557.106 77.8006 556.713 77.8497 556.467 77.9972C556.221 78.1447 556.024 78.3906 555.926 78.6856C555.828 79.0297 555.729 79.5214 555.729 80.1606V81.1931H558.876V81.2422Z" fill="#B3B3B3"/>
<path d="M563.548 81.2418H566.989V82.9134H563.548V87.9284C563.548 88.8134 563.597 89.4526 563.646 89.8951C563.695 90.3376 563.892 90.5834 564.089 90.7801C564.285 90.9276 564.679 91.0259 565.121 91.0259L566.989 90.8784L567.088 92.5009C566.104 92.6484 565.318 92.7468 564.679 92.7468C563.548 92.7468 562.712 92.4518 562.22 91.8618C561.778 91.3209 561.532 90.2393 561.532 88.6659V82.9134H560.008V81.2418H561.532V77.8984H563.499V81.2418H563.548Z" fill="#B3B3B3"/>
<path d="M578.251 86.3549L578.202 87.6333H570.728C570.728 88.7641 570.925 89.5999 571.318 90.2391C571.712 90.8291 572.449 91.1733 573.531 91.1733C574.711 91.1733 575.94 91.1241 577.12 91.0258L577.808 90.9766L577.858 92.4024C576.088 92.6483 574.563 92.7958 573.334 92.7958C572.105 92.7958 571.171 92.5499 570.532 92.0583C569.843 91.5666 569.401 90.9274 569.155 90.0916C568.909 89.2558 568.762 88.2233 568.762 86.9941C568.762 83.0116 570.384 81.0449 573.629 81.0449C575.203 81.0449 576.383 81.4874 577.12 82.3233C577.858 83.1591 578.251 84.4866 578.251 86.3549ZM570.728 86.2074H576.284C576.284 84.8799 576.088 83.9949 575.645 83.4049C575.203 82.8641 574.563 82.5691 573.58 82.5691C572.597 82.5691 571.908 82.8641 571.417 83.4541C570.925 84.0441 570.728 84.9291 570.728 86.2074Z" fill="#B3B3B3"/>
<path d="M582.921 84.4873V92.5014H581.004V81.2423H582.921V82.7173C583.561 82.2748 584.2 81.9306 584.937 81.5864C585.675 81.2423 586.314 81.0456 586.904 80.9473V82.8648C585.675 83.1598 584.347 83.7006 582.921 84.4873Z" fill="#B3B3B3"/>
<path d="M76.2109 100.908H145.683" stroke="#B3B3B3" stroke-width="2" stroke-miterlimit="10"/>
<path d="M539.949 100.908H609.422" stroke="#B3B3B3" stroke-width="2" stroke-miterlimit="10"/>
<rect x="0.5" y="0.5" width="943" height="323" rx="15.5" stroke="black" stroke-opacity="0.12"/>
</svg>
